<svg width="20" height="20" viewBox="0 0 20 20" fill="none" xmlns="http://www.w3.org/2000/svg">
<path d="M13.3333 3.33334H14.9999C15.4419 3.33334 15.8659 3.50893 16.1784 3.82149C16.491 4.13405 16.6666 4.55798 16.6666 5V16.6667C16.6666 17.1087 16.491 17.5326 16.1784 17.8452C15.8659 18.1577 15.4419 18.3333 14.9999 18.3333H4.99992C4.55789 18.3333 4.13397 18.1577 3.82141 17.8452C3.50885 17.5326 3.33325 17.1087 3.33325 16.6667V5C3.33325 4.55798 3.50885 4.13405 3.82141 3.82149C4.13397 3.50893 4.55789 3.33334 4.99992 3.33334H6.66659" stroke="#0FC457" stroke-linecap="round" stroke-linejoin="round"/>
<path d="M12.5001 1.66666H7.50008C7.03984 1.66666 6.66675 2.03976 6.66675 2.5V4.16666C6.66675 4.6269 7.03984 5 7.50008 5H12.5001C12.9603 5 13.3334 4.6269 13.3334 4.16666V2.5C13.3334 2.03976 12.9603 1.66666 12.5001 1.66666Z" stroke="#0FC457" stroke-linecap="round" stroke-linejoin="round"/>
</svg>
