<svg width="201" height="60" viewBox="0 0 201 60" fill="none" xmlns="http://www.w3.org/2000/svg">
<path d="M78.4563 15.6595H80.1804L84.9897 29.7245L89.799 15.5947H91.0175L95.8268 29.7245L100.636 15.6595H102.282L96.3972 31.7985H95.1009L90.4342 18.0966L85.6249 31.7985H84.3286L78.4434 15.6595H78.4563Z" fill="black"/>
<path d="M105.006 23.696C105.006 19.1719 108.519 15.2959 113.263 15.2959C118.008 15.2959 121.443 19.0941 121.443 23.696C121.443 28.2978 117.93 32.096 113.186 32.096C108.441 32.096 105.006 28.2201 105.006 23.696ZM119.784 23.696C119.784 19.82 116.776 16.7348 113.186 16.7348C109.595 16.7348 106.652 19.82 106.652 23.696C106.652 27.5719 109.517 30.6571 113.25 30.6571C116.763 30.6571 119.784 27.4941 119.784 23.696Z" fill="black"/>
<path d="M124.023 15.6595H125.748L130.557 29.7245L135.366 15.5947H136.585L141.394 29.7245L146.203 15.6595H147.85L142.107 31.7985H140.811L136.079 18.0966L131.27 31.7985H129.909L124.023 15.6595Z" fill="black"/>
<path d="M150.352 15.6592H152.14L158.168 29.9445L164.274 15.6592H165.998L158.829 31.7982H157.533L150.365 15.6592H150.352Z" fill="black"/>
<path d="M168.229 23.696C168.229 19.1719 171.741 15.2959 176.486 15.2959C181.23 15.2959 184.666 19.0941 184.666 23.696C184.666 28.2978 181.153 32.096 176.408 32.096C171.664 32.096 168.229 28.2201 168.229 23.696ZM183.006 23.696C183.006 19.82 179.999 16.7348 176.408 16.7348C172.817 16.7348 169.875 19.82 169.875 23.696C169.875 27.5719 172.74 30.6571 176.473 30.6571C180.206 30.6571 183.006 27.4941 183.006 23.696Z" fill="black"/>
<path d="M188.023 29.6457L188.957 28.4272C190.681 29.7883 192.69 30.5143 194.699 30.5143C196.851 30.5143 198.575 29.2957 198.575 27.4291C198.575 25.5624 196.566 24.8494 194.336 24.2013C191.757 23.4883 188.814 22.6975 188.814 19.7549C188.814 17.1753 190.966 15.3086 194.051 15.3086C195.983 15.3086 198.135 16.0216 199.716 17.0327L198.925 18.329C197.422 17.3308 195.698 16.7475 193.973 16.7475C191.744 16.7475 190.318 17.966 190.318 19.6123C190.318 21.4012 192.47 22.0494 194.764 22.6975C197.344 23.4105 200.001 24.3438 200.001 27.2216C200.001 30.0994 197.564 31.8883 194.479 31.8883C192.249 32.0309 189.748 31.0976 188.023 29.6587V29.6457Z" fill="black"/>
<path d="M98.0462 41.637C98.0462 39.7055 99.4073 37.9814 101.559 37.9814C102.713 37.9814 103.426 38.3444 104.139 38.9148L103.776 39.2778C103.205 38.7722 102.557 38.4222 101.481 38.4222C99.7573 38.4222 98.5388 39.8611 98.5388 41.5852C98.5388 43.3093 99.6925 44.7482 101.559 44.7482C102.492 44.7482 103.283 44.3852 103.789 43.9574V41.9481H101.417V41.4426H104.281V44.1648C103.633 44.7352 102.635 45.2408 101.481 45.2408C99.3295 45.3185 98.0332 43.6593 98.0332 41.65L98.0462 41.637Z" fill="black"/>
<path d="M106.227 37.8262H106.732V45.2151H106.227V37.8262Z" fill="black"/>
<path d="M108.312 42.6353C108.312 41.1964 109.466 39.9131 110.97 39.9131C112.474 39.9131 113.627 41.1316 113.627 42.6353C113.627 44.139 112.474 45.3576 110.97 45.3576C109.466 45.2798 108.312 44.0613 108.312 42.6353ZM113.044 42.6353C113.044 41.4168 112.111 40.4057 110.892 40.4057C109.674 40.4057 108.805 41.4038 108.805 42.6353C108.805 43.8668 109.738 44.865 110.957 44.865C112.111 44.865 113.044 43.8668 113.044 42.6353Z" fill="black"/>
<path d="M115.623 44.0744V45.1503H115.117V37.8262H115.623V41.1966C116.051 40.5484 116.699 39.9003 117.775 39.9003C118.993 39.9003 120.289 40.8984 120.289 42.6225C120.289 44.3466 118.993 45.3447 117.775 45.3447C116.699 45.267 116.051 44.6966 115.623 44.0484V44.0744ZM119.719 42.6355C119.719 41.2743 118.786 40.4058 117.71 40.4058C116.634 40.4058 115.623 41.3392 115.623 42.6355C115.623 43.9318 116.634 44.8651 117.71 44.8651C118.786 44.8651 119.719 44.0096 119.719 42.6355Z" fill="black"/>
<path d="M121.367 43.6458C121.367 42.5699 122.301 41.9995 123.597 41.9995C124.31 41.9995 124.815 42.0773 125.321 42.2199V41.9995C125.321 41.0014 124.673 40.418 123.597 40.418C122.949 40.418 122.443 40.5606 122.015 40.8458L121.795 40.418C122.365 40.1328 122.949 39.9902 123.584 39.9902C124.297 39.9902 124.802 40.2106 125.23 40.5606C125.593 40.9236 125.736 41.3514 125.736 41.9995V45.2273H125.23V44.3717C124.867 44.8773 124.219 45.3829 123.299 45.3829C122.365 45.3051 121.367 44.8125 121.367 43.6588V43.6458ZM125.308 43.2829V42.7125C124.88 42.5699 124.31 42.4921 123.584 42.4921C122.508 42.4921 121.86 42.9977 121.86 43.7106C121.86 44.4236 122.573 44.8643 123.363 44.8643C124.439 44.8643 125.295 44.2162 125.295 43.2829H125.308Z" fill="black"/>
<path d="M127.615 37.8262H128.121V45.2151H127.615V37.8262Z" fill="black"/>
<path d="M133.203 38.1123H133.708L136.508 42.2734L139.308 38.1123H139.814V45.1383H139.308V39.0327L136.508 43.129H136.431L133.631 39.0327V45.1383H133.125V38.1123H133.203Z" fill="black"/>
<path d="M141.537 42.5705C141.537 41.0668 142.613 39.9131 143.974 39.9131C145.413 39.9131 146.346 41.0668 146.346 42.6353V42.8557H142.107C142.185 44.152 143.119 44.865 144.117 44.865C144.908 44.865 145.478 44.502 145.906 44.0742L146.269 44.3594C145.763 44.9298 145.115 45.2928 144.117 45.2928C142.678 45.2928 141.537 44.2168 141.537 42.5705ZM145.776 42.3501C145.698 41.339 145.128 40.3409 143.909 40.3409C142.898 40.3409 142.12 41.1964 142.043 42.3501H145.776Z" fill="black"/>
<path d="M147.41 42.6355C147.41 40.9892 148.706 39.9132 149.925 39.9132C150.936 39.9132 151.649 40.4836 152.077 41.1318V37.8262H152.582V45.2151H152.077V44.0614C151.649 44.7096 151.001 45.3577 149.925 45.3577C148.706 45.2799 147.41 44.2818 147.41 42.6355ZM152.077 42.5577C152.077 41.2614 151.079 40.328 150.003 40.328C148.849 40.328 147.993 41.1188 147.993 42.5577C147.993 43.9966 148.927 44.7873 150.003 44.7873C151.079 44.8651 152.077 43.9318 152.077 42.5577Z" fill="black"/>
<path d="M154.447 38.0459H155.095V38.6941H154.447V38.0459ZM154.525 40.0552H155.031V45.2274H154.525V40.0552Z" fill="black"/>
<path d="M160.049 38.1123H160.554V41.4179H165.078V38.1123H165.584V45.1383H165.078V41.8327H160.554V45.1383H160.049V38.1123Z" fill="black"/>
<path d="M167.645 42.2731V38.1768H168.15V42.2731C168.15 43.9194 169.083 44.9305 170.522 44.9305C171.961 44.9305 172.895 44.0749 172.895 42.3509V38.2545H173.4V42.3509C173.4 44.3601 172.259 45.4361 170.535 45.4361C168.811 45.2935 167.67 44.2175 167.67 42.2731H167.645Z" fill="black"/>
<path d="M175.396 38.1123H178.339C179.7 38.1123 180.634 38.8253 180.634 39.8364C180.634 40.7697 179.985 41.2753 179.415 41.4827C180.284 41.7031 180.997 42.1957 180.997 43.2068C180.997 44.3605 179.998 45.1383 178.482 45.1383H175.396V38.1123ZM178.261 41.3401C179.337 41.3401 180.05 40.8345 180.05 39.8364C180.05 39.0456 179.402 38.5401 178.261 38.5401H175.889V41.3401H178.261ZM178.482 44.7105C179.7 44.7105 180.491 44.1401 180.491 43.2716C180.491 42.4031 179.7 41.9105 178.339 41.9105H175.967V44.7105H178.482Z" fill="black"/>
<path d="M46.8801 23.6184L57.2895 20.9609L58.6506 31.3703L57.3543 32.8092L46.945 25.2776L46.8672 23.6313L46.8801 23.6184Z" fill="#4F8E78"/>
<path d="M32.6074 27.0667L46.6723 23.9814L54.9946 30.8L57.9372 34.0278L54.2817 45.3705L48.6816 51.9039L46.1668 40.7816L43.0816 36.2575L36.7686 30.3074L32.6074 27.0796V27.0667Z" fill="#46AACA"/>
<path d="M3.18164 31.799L18.7503 29.4268L25.1411 34.949L32.0244 42.2731L34.1115 50.9584L33.0356 58.5677L19.7614 56.7788L18.9058 48.1713L15.678 42.9991L15.5354 41.2102L12.4502 38.3453L3.1946 31.812L3.18164 31.799Z" fill="#51A790"/>
<path d="M31.0266 26.0557C21.5506 27.7798 11.945 28.9984 2.24859 29.6465C2.24859 26.0557 2.96155 22.6205 4.33564 19.3798C5.69676 21.389 7.49862 23.3205 9.8579 25.265C10.8561 26.1206 12.2301 26.4835 13.5135 26.3409L14.732 26.1983L14.1616 25.8354C10.5709 23.2557 8.21159 21.0261 6.4875 18.6538C5.77454 17.6557 5.69676 16.2816 6.34491 15.2834C8.57456 11.6927 11.7246 8.60747 15.3153 6.31301C15.3153 7.60931 15.3931 8.75006 15.6005 9.826C16.5339 14.8427 19.3339 18.939 24.6358 23.1779C25.7117 24.0335 27.1506 24.3965 28.5766 24.1761L29.5099 24.0335L29.0043 23.6705C23.1191 19.5094 18.8802 15.5557 17.7394 9.46303C17.5968 8.67228 17.5191 7.73894 17.4543 6.88338C17.4543 5.80745 18.0246 4.87411 19.0357 4.44633C22.3413 3.00743 25.8543 2.29446 29.4451 2.29446C29.3025 3.94077 29.4451 5.60004 29.7303 7.16857C30.9488 13.5594 35.3303 17.7205 38.4803 20.2224C39.634 21.1557 41.2026 21.5187 42.7192 21.1557L43.2248 21.0131L42.797 20.7279C37.8451 17.2149 33.1136 13.1186 31.8951 6.74079C31.6099 5.30189 31.5321 3.73336 31.6747 2.07409C31.6747 1.64631 31.7525 1.21853 31.8173 0.712968L31.8951 0.142594H31.6099C31.1043 0 30.4562 0 29.821 0C21.6284 0.0129631 14.019 3.24076 8.35419 9.20377C2.67637 15.076 -0.266247 22.8279 0.0189406 31.0076C0.589315 46.4337 13.1505 58.9949 28.6543 59.643H29.8729C37.6248 59.643 44.8711 56.7004 50.536 51.3207C56.4212 45.6559 59.7268 38.0466 59.7268 29.8669C59.7268 27.2872 59.3638 24.6946 58.7286 22.1928C58.6508 21.9724 58.2231 20.1057 57.7175 19.3927C48.8248 22.0502 39.5692 24.4094 31.0266 26.0687V26.0557ZM18.6857 55.0411C9.71531 51.0226 3.54489 42.6225 2.39118 32.9391L3.18193 33.4447C3.7523 33.8077 4.25786 34.1577 4.47823 34.3002C11.219 38.7466 16.4561 42.7651 18.1802 49.3633C18.6857 51.0874 18.8283 53.0189 18.6857 55.0282V55.0411ZM31.8173 57.3356C31.1692 57.4134 30.521 57.4134 29.8858 57.4134C26.8784 57.4134 23.9358 56.9078 21.1358 55.9745C20.9932 55.8967 20.8506 55.7541 20.9154 55.6115C21.1358 53.2393 20.9932 50.9448 20.4098 48.7929C18.4783 41.4688 12.5153 36.9577 6.05972 32.6539L5.20416 32.0836C5.06157 32.0058 5.06157 31.8632 5.06157 31.8632C5.06157 31.7854 5.13935 31.7206 5.28194 31.7206C9.1579 31.4354 13.0987 31.0076 16.9746 30.5021L17.0524 30.5798C17.558 30.9428 19.0617 31.941 19.7098 32.3687C25.3747 36.2447 30.6895 40.1855 32.3358 46.7188C33.2692 49.8041 33.0488 53.3948 31.8303 57.3356H31.8173ZM46.7378 51.593C43.2248 54.3152 39.1285 56.1819 34.7599 56.9726C34.6173 56.9726 34.5396 56.9726 34.397 56.83C34.3192 56.7523 34.2544 56.6097 34.3192 56.4671C35.2525 52.7337 35.3173 49.2207 34.5396 45.9929C32.8932 39.6799 28.2914 35.441 21.9784 31.0724C21.6154 30.8521 21.2654 30.5669 20.9024 30.3595C20.7598 30.2817 20.8246 30.1391 20.8246 30.1391C20.8246 30.0613 20.9024 29.9965 21.045 29.9187C24.558 29.4132 28.071 28.8428 31.5192 28.1946L31.8821 28.1169C32.6729 28.6224 33.4636 29.1928 34.2544 29.6984C39.5692 33.2891 44.9489 37.3725 46.5952 43.8281C47.1656 46.2003 47.2434 48.8448 46.7378 51.58V51.593ZM49.9008 48.7281C49.7582 48.8707 49.5378 48.8707 49.473 48.8059C49.3952 48.8059 49.2526 48.6633 49.2526 48.4429C49.3304 46.654 49.11 44.8522 48.6823 43.2707C46.9582 36.5947 41.7989 32.291 36.484 28.6354C36.1211 28.3502 35.6933 28.1298 35.3303 27.8446C35.1877 27.7669 35.2525 27.6243 35.2525 27.6243C35.2525 27.5465 35.3303 27.4817 35.4729 27.4039C38.8433 26.6909 42.2137 25.965 45.5841 25.1094C45.947 25.3298 47.3082 26.2632 47.8785 26.6132C51.7545 29.1928 54.8397 31.565 57.1342 34.2873C56.123 39.667 53.686 44.6966 49.8878 48.7152L49.9008 48.7281ZM57.4323 30.5798C57.4323 30.7224 57.3545 30.865 57.2119 30.865C57.0694 30.9428 56.9268 30.865 56.849 30.7873C54.5545 28.5576 51.8971 26.6909 49.6026 25.1224L48.8897 24.6168C48.7471 24.5391 48.8119 24.3965 48.8119 24.3965C48.8119 24.3965 48.8119 24.2539 48.9545 24.1761C51.4693 23.5279 53.9064 22.815 56.3434 22.089C57.0564 24.6039 57.4194 27.1835 57.4194 29.7632V30.5539L57.4323 30.5798Z" fill="black"/>
<path d="M65.3918 6.89643L65.1714 6.53346C64.0177 4.38159 61.5159 3.30566 59.1436 4.09641L53.9065 5.74271C51.7547 6.45568 49.3824 5.82049 47.9565 4.239C46.4528 2.59269 44.1583 1.94454 42.0065 2.37232L40.9305 2.65751C40.7102 2.73528 40.5676 2.8001 40.5027 3.02047C40.425 3.16307 40.3602 3.38344 40.425 3.59085L43.2898 14.3502C43.3676 14.5706 43.575 14.778 43.7954 14.8557C44.0157 14.9335 44.1583 14.9335 44.3657 14.8557C45.2213 14.6354 46.5176 14.2854 47.3084 14.065C48.0991 13.8446 52.5454 12.4835 53.2584 12.2761C57.2769 10.9798 61.5807 9.41126 64.9511 8.03717C65.1714 7.9594 65.314 7.75199 65.3789 7.53162C65.4566 7.31124 65.4566 7.10384 65.3789 6.88346L65.3918 6.89643ZM44.4435 12.4187L42.2139 4.01863C43.938 3.73344 45.7269 4.30381 46.9454 5.60012L47.088 5.74271C48.8121 7.53162 51.4695 8.25755 53.8288 7.4668L59.8566 5.53531C61.2177 5.10752 62.7214 5.6779 63.5122 6.89643C57.7047 9.19089 51.4565 11.2779 45.2861 12.9242C44.9231 13.002 44.4954 12.7817 44.4306 12.4187H44.4435Z" fill="black"/>
</svg>
